<svg width="18" height="18" viewBox="0 0 18 18" fill="none" xmlns="http://www.w3.org/2000/svg">
<g clip-path="url(#clip0_227_1183)">
<path d="M17.01 13.1075V2.10349C17.01 1.43549 16.588 0.98999 15.8965 0.98999L4.89248 1.01349C4.24798 1.01349 3.81448 1.49399 3.81448 2.04499C3.81448 2.59549 4.30648 3.06449 4.84548 3.06449H8.33798L13.916 2.85349L11.783 4.72849L1.31798 15.217C1.10748 15.428 0.990479 15.6855 0.990479 15.932C0.990479 16.482 1.48248 17.01 2.05648 17.01C2.32648 17.01 2.57248 16.9045 2.78298 16.6935L13.2715 6.20499L15.1465 4.08399L14.9355 9.41599V13.1545C14.9355 13.6935 15.4045 14.1855 15.967 14.1855C16.5175 14.1855 17.01 13.7285 17.01 13.1075Z" fill="white"/>
</g>
<defs>
<clipPath id="clip0_227_1183">
<rect width="18" height="18" fill="white"/>
</clipPath>
</defs>
</svg>
