<svg width="16" height="14" viewBox="0 0 16 14" fill="none" xmlns="http://www.w3.org/2000/svg">
<g clip-path="url(#clip0_227_1179)">
<path d="M5.33333 13.3334C4.89792 13.3334 4.52531 13.1785 4.2155 12.8686C3.90569 12.5588 3.75053 12.186 3.75 11.75V9.37502H6.125V7.59377C5.66319 7.56738 5.22461 7.46526 4.80925 7.2874C4.39389 7.10953 4.01442 6.84222 3.67083 6.48544V5.6146H2.76042L0.1875 3.04169C0.6625 2.43474 1.24965 2.00592 1.94896 1.75523C2.64826 1.50453 3.35417 1.37919 4.06667 1.37919C4.42292 1.37919 4.7694 1.40558 5.10612 1.45835C5.44285 1.51113 5.78247 1.61009 6.125 1.75523V0.666687H15.625V10.9584C15.625 11.6181 15.3941 12.1788 14.9323 12.6406C14.4705 13.1025 13.9097 13.3334 13.25 13.3334H5.33333ZM7.70833 9.37502H12.4583V10.9584C12.4583 11.1827 12.5343 11.3708 12.6863 11.5228C12.8383 11.6748 13.0262 11.7505 13.25 11.75C13.4738 11.7495 13.6619 11.6735 13.8145 11.522C13.967 11.3705 14.0427 11.1827 14.0417 10.9584V2.25002H7.70833V2.72502L12.4583 7.47502V8.58335H11.35L9.09375 6.3271L8.93542 6.48544C8.7507 6.67016 8.55621 6.83509 8.35196 6.98023C8.14771 7.12537 7.93317 7.23752 7.70833 7.31669V9.37502ZM3.43333 4.03127H5.25417V5.73335C5.4125 5.83891 5.57743 5.91148 5.74896 5.95106C5.92049 5.99065 6.09861 6.01044 6.28333 6.01044C6.58681 6.01044 6.86072 5.96426 7.10508 5.8719C7.34944 5.77953 7.59011 5.6146 7.82708 5.3771L7.98542 5.21877L6.87708 4.11044C6.49444 3.7278 6.06563 3.44069 5.59062 3.2491C5.11562 3.05752 4.60764 2.96199 4.06667 2.96252C3.80278 2.96252 3.55208 2.98231 3.31458 3.0219C3.07708 3.06148 2.83958 3.12085 2.60208 3.20002L3.43333 4.03127ZM10.875 10.9584H5.33333V11.75H10.9937C10.9542 11.6313 10.9246 11.5059 10.9051 11.374C10.8856 11.242 10.8755 11.1035 10.875 10.9584Z" fill="white"/>
</g>
<defs>
<clipPath id="clip0_227_1179">
<rect width="16" height="14" fill="white"/>
</clipPath>
</defs>
</svg>
