<svg width="18" height="19" viewBox="0 0 18 19" fill="none" xmlns="http://www.w3.org/2000/svg">
<g clip-path="url(#clip0_227_1203)">
<path d="M2 18.5C1.45 18.5 0.979333 18.3043 0.588 17.913C0.196667 17.5217 0.000666667 17.0507 0 16.5V2.5C0 1.95 0.196 1.47933 0.588 1.088C0.98 0.696667 1.45067 0.500667 2 0.5H8C8.28333 0.5 8.521 0.596 8.713 0.788C8.905 0.98 9.00067 1.21733 9 1.5C8.99933 1.78267 8.90333 2.02033 8.712 2.213C8.52067 2.40567 8.28333 2.50133 8 2.5H2V16.5H8C8.28333 16.5 8.521 16.596 8.713 16.788C8.905 16.98 9.00067 17.2173 9 17.5C8.99933 17.7827 8.90333 18.0203 8.712 18.213C8.52067 18.4057 8.28333 18.5013 8 18.5H2ZM14.175 10.5H7C6.71667 10.5 6.47933 10.404 6.288 10.212C6.09667 10.02 6.00067 9.78267 6 9.5C5.99933 9.21733 6.09533 8.98 6.288 8.788C6.48067 8.596 6.718 8.5 7 8.5H14.175L12.3 6.625C12.1167 6.44167 12.025 6.21667 12.025 5.95C12.025 5.68333 12.1167 5.45 12.3 5.25C12.4833 5.05 12.7167 4.94567 13 4.937C13.2833 4.92833 13.525 5.02433 13.725 5.225L17.3 8.8C17.5 9 17.6 9.23333 17.6 9.5C17.6 9.76667 17.5 10 17.3 10.2L13.725 13.775C13.525 13.975 13.2877 14.071 13.013 14.063C12.7383 14.055 12.5007 13.9507 12.3 13.75C12.1167 13.55 12.0293 13.3127 12.038 13.038C12.0467 12.7633 12.1423 12.534 12.325 12.35L14.175 10.5Z" fill="#EF3F3F"/>
</g>
<defs>
<clipPath id="clip0_227_1203">
<rect width="18" height="18" fill="white" transform="translate(0 0.5)"/>
</clipPath>
</defs>
</svg>
