<svg width="16" height="16" viewBox="0 0 16 16" fill="none" xmlns="http://www.w3.org/2000/svg">
<g clip-path="url(#clip0_227_1175)">
<path d="M5.5 15.5C5.26389 15.5 5.06611 15.42 4.90667 15.26C4.74722 15.1 4.66722 14.9022 4.66667 14.6667V11.3333H1.33333C1.09722 11.3333 0.899445 11.2533 0.74 11.0933C0.580556 10.9333 0.500556 10.7356 0.5 10.5V5.5C0.5 5.26389 0.58 5.06611 0.74 4.90667C0.9 4.74722 1.09778 4.66722 1.33333 4.66667H4.66667V1.33333C4.66667 1.09722 4.74667 0.899445 4.90667 0.74C5.06667 0.580556 5.26444 0.500556 5.5 0.5H10.5C10.7361 0.5 10.9342 0.58 11.0942 0.74C11.2542 0.9 11.3339 1.09778 11.3333 1.33333V4.66667H14.6667C14.9028 4.66667 15.1008 4.74667 15.2608 4.90667C15.4208 5.06667 15.5006 5.26444 15.5 5.5V10.5C15.5 10.7361 15.42 10.9342 15.26 11.0942C15.1 11.2542 14.9022 11.3339 14.6667 11.3333H11.3333V14.6667C11.3333 14.9028 11.2533 15.1008 11.0933 15.2608C10.9333 15.4208 10.7356 15.5006 10.5 15.5H5.5ZM6.33333 13.8333H9.66667V9.66667H13.8333V6.33333H9.66667V2.16667H6.33333V6.33333H2.16667V9.66667H6.33333V13.8333Z" fill="white"/>
</g>
<defs>
<clipPath id="clip0_227_1175">
<rect width="16" height="16" fill="white"/>
</clipPath>
</defs>
</svg>
