<svg width="329" height="326" viewBox="0 0 329 326" fill="none" xmlns="http://www.w3.org/2000/svg">
<circle cx="56.999" cy="312.037" r="5" fill="#96B04D"/>
<path d="M71.7524 311.247C72.0324 311.247 72.2791 311.293 72.4924 311.387C72.7124 311.473 72.8824 311.603 73.0024 311.777C73.1291 311.943 73.1924 312.147 73.1924 312.387C73.1924 312.647 73.1191 312.887 72.9724 313.107C72.8324 313.32 72.6491 313.507 72.4224 313.667C72.1958 313.82 71.9558 313.943 71.7024 314.037C72.0158 314.043 72.3124 314.103 72.5924 314.217C72.8724 314.323 73.1024 314.487 73.2824 314.707C73.4624 314.927 73.5524 315.21 73.5524 315.557C73.5524 315.863 73.4791 316.147 73.3324 316.407C73.1924 316.66 72.9958 316.887 72.7424 317.087C72.4958 317.293 72.2124 317.467 71.8924 317.607C71.5724 317.753 71.2358 317.863 70.8824 317.937C70.5358 318.01 70.1924 318.047 69.8524 318.047V317.867C70.1924 317.86 70.5258 317.803 70.8524 317.697C71.1791 317.597 71.4724 317.45 71.7324 317.257C71.9991 317.063 72.2091 316.823 72.3624 316.537C72.5224 316.25 72.6024 315.923 72.6024 315.557C72.6024 315.163 72.5058 314.84 72.3124 314.587C72.1258 314.327 71.8691 314.183 71.5424 314.157C71.4424 314.197 71.3524 314.233 71.2724 314.267C71.1991 314.293 71.1324 314.307 71.0724 314.307C71.0191 314.307 70.9791 314.297 70.9524 314.277C70.9258 314.25 70.9124 314.217 70.9124 314.177C70.9124 314.117 70.9391 314.07 70.9924 314.037C71.0458 314.003 71.1058 313.987 71.1724 313.987C71.2258 313.987 71.2791 313.993 71.3324 314.007C71.3924 314.013 71.4558 314.02 71.5224 314.027C71.7958 313.82 71.9924 313.593 72.1124 313.347C72.2324 313.093 72.2924 312.84 72.2924 312.587C72.2924 312.273 72.2124 312.047 72.0524 311.907C71.8991 311.76 71.6891 311.687 71.4224 311.687C71.1491 311.687 70.8958 311.76 70.6624 311.907C70.4358 312.053 70.2458 312.277 70.0924 312.577L69.9224 312.497C70.0224 312.277 70.1524 312.073 70.3124 311.887C70.4724 311.693 70.6691 311.54 70.9024 311.427C71.1424 311.307 71.4258 311.247 71.7524 311.247ZM80.7844 313.557V314.137H77.1744V313.557H80.7844ZM86.6448 309.317C86.9448 309.317 87.2182 309.37 87.4648 309.477C87.7182 309.577 87.9182 309.73 88.0648 309.937C88.2182 310.137 88.2948 310.387 88.2948 310.687C88.2948 311.093 88.1615 311.453 87.8948 311.767C87.6282 312.08 87.2848 312.37 86.8648 312.637L86.7848 312.497C86.9582 312.35 87.0948 312.19 87.1948 312.017C87.3015 311.843 87.3782 311.657 87.4248 311.457C87.4715 311.25 87.4948 311.037 87.4948 310.817C87.4948 310.423 87.4115 310.107 87.2448 309.867C87.0848 309.62 86.8482 309.497 86.5348 309.497C86.2682 309.497 86.0448 309.593 85.8648 309.787C85.6848 309.973 85.5948 310.233 85.5948 310.567C85.5948 310.88 85.6682 311.157 85.8148 311.397C85.9615 311.63 86.1515 311.843 86.3848 312.037C86.6182 312.23 86.8648 312.42 87.1248 312.607C87.3848 312.787 87.6315 312.98 87.8648 313.187C88.0982 313.387 88.2882 313.617 88.4348 313.877C88.5815 314.13 88.6548 314.427 88.6548 314.767C88.6548 315.147 88.5615 315.48 88.3748 315.767C88.1882 316.053 87.9315 316.277 87.6048 316.437C87.2848 316.597 86.9148 316.677 86.4948 316.677C86.1415 316.677 85.8115 316.617 85.5048 316.497C85.1982 316.37 84.9515 316.183 84.7648 315.937C84.5782 315.683 84.4848 315.37 84.4848 314.997C84.4848 314.65 84.5615 314.34 84.7148 314.067C84.8748 313.787 85.0848 313.543 85.3448 313.337C85.6115 313.123 85.9048 312.943 86.2248 312.797L86.3048 312.937C85.9582 313.17 85.7148 313.453 85.5748 313.787C85.4348 314.113 85.3648 314.467 85.3648 314.847C85.3648 315.133 85.4015 315.403 85.4748 315.657C85.5548 315.903 85.6815 316.107 85.8548 316.267C86.0348 316.42 86.2682 316.497 86.5548 316.497C86.8882 316.497 87.1782 316.387 87.4248 316.167C87.6782 315.94 87.8048 315.613 87.8048 315.187C87.8048 314.86 87.7315 314.573 87.5848 314.327C87.4448 314.08 87.2615 313.853 87.0348 313.647C86.8082 313.433 86.5648 313.23 86.3048 313.037C86.0515 312.843 85.8115 312.643 85.5848 312.437C85.3582 312.23 85.1715 312 85.0248 311.747C84.8848 311.493 84.8148 311.203 84.8148 310.877C84.8148 310.563 84.8948 310.29 85.0548 310.057C85.2215 309.823 85.4415 309.643 85.7148 309.517C85.9948 309.383 86.3048 309.317 86.6448 309.317ZM92.7502 311.247C92.9835 311.247 93.1868 311.28 93.3602 311.347C93.5335 311.413 93.6768 311.507 93.7902 311.627C93.9168 311.76 94.0035 311.933 94.0502 312.147C94.0968 312.36 94.1202 312.623 94.1202 312.937V315.607C94.1202 315.887 94.1768 316.077 94.2902 316.177C94.4102 316.277 94.6068 316.327 94.8802 316.327V316.537C94.7668 316.53 94.5935 316.523 94.3602 316.517C94.1268 316.503 93.9002 316.497 93.6802 316.497C93.4602 316.497 93.2435 316.503 93.0302 316.517C92.8235 316.523 92.6668 316.53 92.5602 316.537V316.327C92.8002 316.327 92.9702 316.277 93.0702 316.177C93.1702 316.077 93.2202 315.887 93.2202 315.607V312.717C93.2202 312.51 93.2068 312.32 93.1802 312.147C93.1535 311.973 93.0868 311.833 92.9802 311.727C92.8735 311.62 92.7002 311.567 92.4602 311.567C92.2002 311.567 91.9668 311.647 91.7602 311.807C91.5602 311.967 91.4002 312.187 91.2802 312.467C91.1668 312.74 91.1102 313.047 91.1102 313.387V315.607C91.1102 315.887 91.1602 316.077 91.2602 316.177C91.3602 316.277 91.5302 316.327 91.7702 316.327V316.537C91.6635 316.53 91.5035 316.523 91.2902 316.517C91.0835 316.503 90.8702 316.497 90.6502 316.497C90.4302 316.497 90.2035 316.503 89.9702 316.517C89.7368 316.523 89.5635 316.53 89.4502 316.537V316.327C89.7235 316.327 89.9168 316.277 90.0302 316.177C90.1502 316.077 90.2102 315.887 90.2102 315.607V312.477C90.2102 312.177 90.1568 311.957 90.0502 311.817C89.9435 311.67 89.7435 311.597 89.4502 311.597V311.387C89.6635 311.407 89.8702 311.417 90.0702 311.417C90.2635 311.417 90.4468 311.407 90.6202 311.387C90.8002 311.36 90.9635 311.323 91.1102 311.277V312.457C91.2835 312.023 91.5202 311.713 91.8202 311.527C92.1202 311.34 92.4302 311.247 92.7502 311.247ZM95.7602 311.247C95.9935 311.247 96.1968 311.28 96.3702 311.347C96.5435 311.413 96.6868 311.507 96.8002 311.627C96.9268 311.76 97.0135 311.933 97.0602 312.147C97.1068 312.36 97.1302 312.623 97.1302 312.937V315.607C97.1302 315.887 97.1868 316.077 97.3002 316.177C97.4202 316.277 97.6168 316.327 97.8902 316.327V316.537C97.7768 316.53 97.6035 316.523 97.3702 316.517C97.1368 316.503 96.9102 316.497 96.6902 316.497C96.4702 316.497 96.2535 316.503 96.0402 316.517C95.8335 316.523 95.6768 316.53 95.5702 316.537V316.327C95.8102 316.327 95.9802 316.277 96.0802 316.177C96.1802 316.077 96.2302 315.887 96.2302 315.607V312.717C96.2302 312.51 96.2168 312.32 96.1902 312.147C96.1635 311.973 96.0968 311.833 95.9902 311.727C95.8835 311.62 95.7102 311.567 95.4702 311.567C95.2102 311.567 94.9768 311.647 94.7702 311.807C94.5702 311.967 94.4102 312.183 94.2902 312.457C94.1768 312.73 94.1202 313.037 94.1202 313.377L94.0902 312.447C94.2702 311.987 94.5135 311.673 94.8202 311.507C95.1268 311.333 95.4402 311.247 95.7602 311.247ZM100.777 311.247C101.204 311.247 101.587 311.34 101.927 311.527C102.267 311.713 102.537 312.007 102.737 312.407C102.944 312.807 103.047 313.327 103.047 313.967C103.047 314.607 102.944 315.127 102.737 315.527C102.537 315.92 102.267 316.21 101.927 316.397C101.587 316.583 101.204 316.677 100.777 316.677C100.357 316.677 99.9738 316.583 99.6271 316.397C99.2871 316.21 99.0138 315.92 98.8071 315.527C98.6071 315.127 98.5071 314.607 98.5071 313.967C98.5071 313.327 98.6071 312.807 98.8071 312.407C99.0138 312.007 99.2871 311.713 99.6271 311.527C99.9738 311.34 100.357 311.247 100.777 311.247ZM100.777 311.447C100.397 311.447 100.084 311.643 99.8371 312.037C99.5971 312.43 99.4771 313.073 99.4771 313.967C99.4771 314.86 99.5971 315.503 99.8371 315.897C100.084 316.283 100.397 316.477 100.777 316.477C101.157 316.477 101.467 316.283 101.707 315.897C101.954 315.503 102.077 314.86 102.077 313.967C102.077 313.073 101.954 312.43 101.707 312.037C101.467 311.643 101.157 311.447 100.777 311.447Z" fill="black"/>
<circle cx="140.999" cy="312.037" r="5" fill="#8778A4"/>
<path d="M154.041 311.247C154.674 311.247 155.171 311.477 155.531 311.937C155.897 312.397 156.081 313.047 156.081 313.887C156.081 314.433 156.007 314.92 155.861 315.347C155.714 315.773 155.517 316.147 155.271 316.467C155.031 316.78 154.761 317.043 154.461 317.257C154.167 317.47 153.867 317.637 153.561 317.757C153.254 317.883 152.964 317.97 152.691 318.017L152.651 317.817C152.924 317.737 153.204 317.623 153.491 317.477C153.784 317.33 154.051 317.117 154.291 316.837C154.537 316.557 154.734 316.18 154.881 315.707C155.034 315.233 155.111 314.633 155.111 313.907C155.111 313.253 155.051 312.75 154.931 312.397C154.811 312.043 154.661 311.797 154.481 311.657C154.307 311.517 154.127 311.447 153.941 311.447C153.747 311.447 153.564 311.517 153.391 311.657C153.217 311.79 153.077 312.01 152.971 312.317C152.864 312.617 152.811 313.017 152.811 313.517C152.811 313.997 152.857 314.38 152.951 314.667C153.051 314.953 153.184 315.16 153.351 315.287C153.517 315.413 153.697 315.477 153.891 315.477C154.037 315.477 154.197 315.443 154.371 315.377C154.544 315.31 154.704 315.197 154.851 315.037C155.004 314.877 155.111 314.657 155.171 314.377L155.271 314.317C155.224 314.69 155.107 314.983 154.921 315.197C154.734 315.403 154.524 315.55 154.291 315.637C154.057 315.723 153.841 315.767 153.641 315.767C153.334 315.767 153.041 315.683 152.761 315.517C152.487 315.343 152.264 315.097 152.091 314.777C151.924 314.45 151.841 314.053 151.841 313.587C151.841 313.087 151.941 312.663 152.141 312.317C152.341 311.963 152.607 311.697 152.941 311.517C153.274 311.337 153.641 311.247 154.041 311.247ZM163.349 313.557V314.137H159.739V313.557H163.349ZM169.059 311.277V315.507C169.059 315.827 169.133 316.043 169.279 316.157C169.426 316.27 169.673 316.327 170.019 316.327V316.537C169.886 316.53 169.689 316.523 169.429 316.517C169.176 316.503 168.913 316.497 168.639 316.497C168.333 316.497 168.036 316.503 167.749 316.517C167.469 316.523 167.253 316.53 167.099 316.537V316.327C167.433 316.327 167.693 316.273 167.879 316.167C168.066 316.053 168.159 315.833 168.159 315.507V313.087C168.159 312.767 168.126 312.53 168.059 312.377C167.993 312.223 167.873 312.123 167.699 312.077C167.533 312.03 167.299 312.007 166.999 312.007V311.787C167.479 311.773 167.879 311.73 168.199 311.657C168.519 311.583 168.806 311.457 169.059 311.277ZM173.65 311.247L173.69 311.507L170.88 315.487L170.87 315.327H173.93C174.204 315.327 174.377 315.29 174.45 315.217C174.524 315.137 174.574 315.003 174.6 314.817H174.77C174.77 315.143 174.774 315.393 174.78 315.567C174.787 315.74 174.797 315.9 174.81 316.047C174.764 316.033 174.687 316.027 174.58 316.027C174.48 316.02 174.36 316.013 174.22 316.007C174.08 316 173.934 315.997 173.78 315.997C173.627 315.997 173.474 315.997 173.32 315.997H170.4V315.787L173.65 311.247ZM173.81 311.247V317.947H173.01V312.307L173.65 311.247H173.81ZM178.762 311.247C178.995 311.247 179.199 311.28 179.372 311.347C179.545 311.413 179.689 311.507 179.802 311.627C179.929 311.76 180.015 311.933 180.062 312.147C180.109 312.36 180.132 312.623 180.132 312.937V315.607C180.132 315.887 180.189 316.077 180.302 316.177C180.422 316.277 180.619 316.327 180.892 316.327V316.537C180.779 316.53 180.605 316.523 180.372 316.517C180.139 316.503 179.912 316.497 179.692 316.497C179.472 316.497 179.255 316.503 179.042 316.517C178.835 316.523 178.679 316.53 178.572 316.537V316.327C178.812 316.327 178.982 316.277 179.082 316.177C179.182 316.077 179.232 315.887 179.232 315.607V312.717C179.232 312.51 179.219 312.32 179.192 312.147C179.165 311.973 179.099 311.833 178.992 311.727C178.885 311.62 178.712 311.567 178.472 311.567C178.212 311.567 177.979 311.647 177.772 311.807C177.572 311.967 177.412 312.187 177.292 312.467C177.179 312.74 177.122 313.047 177.122 313.387V315.607C177.122 315.887 177.172 316.077 177.272 316.177C177.372 316.277 177.542 316.327 177.782 316.327V316.537C177.675 316.53 177.515 316.523 177.302 316.517C177.095 316.503 176.882 316.497 176.662 316.497C176.442 316.497 176.215 316.503 175.982 316.517C175.749 316.523 175.575 316.53 175.462 316.537V316.327C175.735 316.327 175.929 316.277 176.042 316.177C176.162 316.077 176.222 315.887 176.222 315.607V312.477C176.222 312.177 176.169 311.957 176.062 311.817C175.955 311.67 175.755 311.597 175.462 311.597V311.387C175.675 311.407 175.882 311.417 176.082 311.417C176.275 311.417 176.459 311.407 176.632 311.387C176.812 311.36 176.975 311.323 177.122 311.277V312.457C177.295 312.023 177.532 311.713 177.832 311.527C178.132 311.34 178.442 311.247 178.762 311.247ZM181.772 311.247C182.005 311.247 182.209 311.28 182.382 311.347C182.555 311.413 182.699 311.507 182.812 311.627C182.939 311.76 183.025 311.933 183.072 312.147C183.119 312.36 183.142 312.623 183.142 312.937V315.607C183.142 315.887 183.199 316.077 183.312 316.177C183.432 316.277 183.629 316.327 183.902 316.327V316.537C183.789 316.53 183.615 316.523 183.382 316.517C183.149 316.503 182.922 316.497 182.702 316.497C182.482 316.497 182.265 316.503 182.052 316.517C181.845 316.523 181.689 316.53 181.582 316.537V316.327C181.822 316.327 181.992 316.277 182.092 316.177C182.192 316.077 182.242 315.887 182.242 315.607V312.717C182.242 312.51 182.229 312.32 182.202 312.147C182.175 311.973 182.109 311.833 182.002 311.727C181.895 311.62 181.722 311.567 181.482 311.567C181.222 311.567 180.989 311.647 180.782 311.807C180.582 311.967 180.422 312.183 180.302 312.457C180.189 312.73 180.132 313.037 180.132 313.377L180.102 312.447C180.282 311.987 180.525 311.673 180.832 311.507C181.139 311.333 181.452 311.247 181.772 311.247ZM186.789 311.247C187.215 311.247 187.599 311.34 187.939 311.527C188.279 311.713 188.549 312.007 188.749 312.407C188.955 312.807 189.059 313.327 189.059 313.967C189.059 314.607 188.955 315.127 188.749 315.527C188.549 315.92 188.279 316.21 187.939 316.397C187.599 316.583 187.215 316.677 186.789 316.677C186.369 316.677 185.985 316.583 185.639 316.397C185.299 316.21 185.025 315.92 184.819 315.527C184.619 315.127 184.519 314.607 184.519 313.967C184.519 313.327 184.619 312.807 184.819 312.407C185.025 312.007 185.299 311.713 185.639 311.527C185.985 311.34 186.369 311.247 186.789 311.247ZM186.789 311.447C186.409 311.447 186.095 311.643 185.849 312.037C185.609 312.43 185.489 313.073 185.489 313.967C185.489 314.86 185.609 315.503 185.849 315.897C186.095 316.283 186.409 316.477 186.789 316.477C187.169 316.477 187.479 316.283 187.719 315.897C187.965 315.503 188.089 314.86 188.089 313.967C188.089 313.073 187.965 312.43 187.719 312.037C187.479 311.643 187.169 311.447 186.789 311.447Z" fill="black"/>
<circle cx="224.999" cy="312.037" r="5" fill="#4E4C86"/>
<path d="M241.835 309.407L244.275 315.697C244.375 315.95 244.489 316.12 244.615 316.207C244.742 316.287 244.859 316.33 244.965 316.337V316.537C244.832 316.523 244.669 316.517 244.475 316.517C244.282 316.51 244.089 316.507 243.895 316.507C243.635 316.507 243.392 316.51 243.165 316.517C242.939 316.517 242.755 316.523 242.615 316.537V316.337C242.955 316.323 243.172 316.267 243.265 316.167C243.359 316.06 243.339 315.837 243.205 315.497L241.345 310.527L241.505 310.397L239.765 314.917C239.659 315.183 239.595 315.41 239.575 315.597C239.555 315.777 239.572 315.92 239.625 316.027C239.685 316.133 239.782 316.21 239.915 316.257C240.055 316.303 240.229 316.33 240.435 316.337V316.537C240.249 316.523 240.052 316.517 239.845 316.517C239.645 316.51 239.459 316.507 239.285 316.507C239.119 316.507 238.975 316.51 238.855 316.517C238.742 316.517 238.635 316.523 238.535 316.537V316.337C238.669 316.303 238.805 316.227 238.945 316.107C239.085 315.98 239.212 315.767 239.325 315.467L241.675 309.407C241.702 309.407 241.729 309.407 241.755 309.407C241.782 309.407 241.809 309.407 241.835 309.407ZM243.055 313.657V313.857H240.075L240.175 313.657H243.055ZM248.164 311.247C248.711 311.247 249.164 311.473 249.524 311.927C249.884 312.373 250.064 313.053 250.064 313.967C250.064 314.567 249.961 315.07 249.754 315.477C249.554 315.877 249.284 316.177 248.944 316.377C248.604 316.577 248.234 316.677 247.834 316.677C247.501 316.677 247.178 316.583 246.864 316.397C246.558 316.203 246.328 315.92 246.174 315.547L246.374 315.657C246.541 315.923 246.748 316.123 246.994 316.257C247.241 316.383 247.494 316.447 247.754 316.447C248.201 316.447 248.534 316.247 248.754 315.847C248.981 315.44 249.094 314.813 249.094 313.967C249.094 313.427 249.051 312.977 248.964 312.617C248.878 312.257 248.744 311.99 248.564 311.817C248.384 311.637 248.154 311.547 247.874 311.547C247.568 311.547 247.281 311.687 247.014 311.967C246.754 312.24 246.594 312.643 246.534 313.177L246.414 313.037C246.488 312.47 246.684 312.03 247.004 311.717C247.331 311.403 247.718 311.247 248.164 311.247ZM246.604 308.707V316.017C246.518 316.09 246.428 316.167 246.334 316.247C246.248 316.32 246.161 316.393 246.074 316.467C245.988 316.54 245.898 316.617 245.804 316.697L245.634 316.627C245.661 316.533 245.678 316.44 245.684 316.347C245.698 316.247 245.704 316.147 245.704 316.047V309.907C245.704 309.607 245.651 309.387 245.544 309.247C245.438 309.1 245.238 309.027 244.944 309.027V308.817C245.158 308.837 245.364 308.847 245.564 308.847C245.758 308.847 245.941 308.837 246.114 308.817C246.294 308.79 246.458 308.753 246.604 308.707ZM253.279 311.247C253.706 311.247 254.089 311.34 254.429 311.527C254.769 311.713 255.039 312.007 255.239 312.407C255.446 312.807 255.549 313.327 255.549 313.967C255.549 314.607 255.446 315.127 255.239 315.527C255.039 315.92 254.769 316.21 254.429 316.397C254.089 316.583 253.706 316.677 253.279 316.677C252.859 316.677 252.476 316.583 252.129 316.397C251.789 316.21 251.516 315.92 251.309 315.527C251.109 315.127 251.009 314.607 251.009 313.967C251.009 313.327 251.109 312.807 251.309 312.407C251.516 312.007 251.789 311.713 252.129 311.527C252.476 311.34 252.859 311.247 253.279 311.247ZM253.279 311.447C252.899 311.447 252.586 311.643 252.339 312.037C252.099 312.43 251.979 313.073 251.979 313.967C251.979 314.86 252.099 315.503 252.339 315.897C252.586 316.283 252.899 316.477 253.279 316.477C253.659 316.477 253.969 316.283 254.209 315.897C254.456 315.503 254.579 314.86 254.579 313.967C254.579 313.073 254.456 312.43 254.209 312.037C253.969 311.643 253.659 311.447 253.279 311.447ZM260.809 311.387V311.587C260.683 311.6 260.566 311.657 260.459 311.757C260.353 311.857 260.253 312.033 260.159 312.287L258.519 316.587C258.493 316.587 258.466 316.587 258.439 316.587C258.413 316.587 258.383 316.587 258.349 316.587L256.509 312.157C256.403 311.897 256.296 311.74 256.189 311.687C256.089 311.627 256.003 311.597 255.929 311.597V311.387C256.063 311.393 256.199 311.403 256.339 311.417C256.486 311.423 256.643 311.427 256.809 311.427C257.016 311.427 257.233 311.423 257.459 311.417C257.693 311.41 257.909 311.4 258.109 311.387V311.597C257.943 311.597 257.793 311.61 257.659 311.637C257.533 311.657 257.449 311.72 257.409 311.827C257.376 311.933 257.409 312.117 257.509 312.377L258.759 315.467L258.699 315.517L259.839 312.527C259.926 312.307 259.959 312.133 259.939 312.007C259.926 311.873 259.859 311.773 259.739 311.707C259.626 311.64 259.449 311.6 259.209 311.587V311.387C259.329 311.393 259.433 311.4 259.519 311.407C259.606 311.407 259.689 311.41 259.769 311.417C259.856 311.417 259.949 311.417 260.049 311.417C260.203 311.417 260.339 311.413 260.459 311.407C260.586 311.4 260.703 311.393 260.809 311.387ZM263.474 311.247C264.061 311.247 264.517 311.427 264.844 311.787C265.177 312.14 265.344 312.693 265.344 313.447H261.814L261.804 313.257H264.384C264.397 312.93 264.371 312.63 264.304 312.357C264.237 312.077 264.131 311.853 263.984 311.687C263.844 311.52 263.661 311.437 263.434 311.437C263.127 311.437 262.854 311.59 262.614 311.897C262.381 312.203 262.241 312.69 262.194 313.357L262.224 313.397C262.211 313.497 262.201 313.607 262.194 313.727C262.187 313.847 262.184 313.967 262.184 314.087C262.184 314.54 262.257 314.93 262.404 315.257C262.551 315.583 262.741 315.833 262.974 316.007C263.214 316.173 263.461 316.257 263.714 316.257C263.914 316.257 264.104 316.227 264.284 316.167C264.464 316.1 264.631 315.993 264.784 315.847C264.937 315.7 265.071 315.503 265.184 315.257L265.384 315.337C265.311 315.557 265.191 315.77 265.024 315.977C264.857 316.183 264.647 316.353 264.394 316.487C264.141 316.613 263.847 316.677 263.514 316.677C263.034 316.677 262.621 316.567 262.274 316.347C261.934 316.127 261.671 315.823 261.484 315.437C261.304 315.043 261.214 314.593 261.214 314.087C261.214 313.5 261.307 312.997 261.494 312.577C261.681 312.15 261.944 311.823 262.284 311.597C262.624 311.363 263.021 311.247 263.474 311.247ZM270.833 311.277V315.507C270.833 315.827 270.906 316.043 271.053 316.157C271.199 316.27 271.446 316.327 271.793 316.327V316.537C271.659 316.53 271.463 316.523 271.203 316.517C270.949 316.503 270.686 316.497 270.413 316.497C270.106 316.497 269.809 316.503 269.523 316.517C269.243 316.523 269.026 316.53 268.873 316.537V316.327C269.206 316.327 269.466 316.273 269.653 316.167C269.839 316.053 269.933 315.833 269.933 315.507V313.087C269.933 312.767 269.899 312.53 269.833 312.377C269.766 312.223 269.646 312.123 269.473 312.077C269.306 312.03 269.073 312.007 268.773 312.007V311.787C269.253 311.773 269.653 311.73 269.973 311.657C270.293 311.583 270.579 311.457 270.833 311.277ZM275.227 310.887C275.227 311.267 275.23 311.563 275.237 311.777C275.243 311.99 275.253 312.18 275.267 312.347C275.213 312.333 275.11 312.323 274.957 312.317C274.81 312.31 274.64 312.307 274.447 312.307C274.253 312.3 274.063 312.297 273.877 312.297H272.817L272.697 314.227C272.843 314.153 273.007 314.087 273.187 314.027C273.367 313.96 273.593 313.927 273.867 313.927C274.273 313.927 274.607 313.993 274.867 314.127C275.127 314.26 275.32 314.443 275.447 314.677C275.573 314.91 275.637 315.173 275.637 315.467C275.637 315.853 275.54 316.203 275.347 316.517C275.153 316.83 274.893 317.097 274.567 317.317C274.247 317.543 273.893 317.717 273.507 317.837C273.12 317.957 272.73 318.017 272.337 318.017V317.837C272.63 317.837 272.917 317.787 273.197 317.687C273.477 317.593 273.727 317.45 273.947 317.257C274.173 317.07 274.353 316.837 274.487 316.557C274.62 316.277 274.687 315.947 274.687 315.567C274.687 315.147 274.577 314.82 274.357 314.587C274.143 314.347 273.833 314.227 273.427 314.227C273.253 314.227 273.107 314.243 272.987 314.277C272.873 314.303 272.747 314.343 272.607 314.397L272.507 314.337L272.697 311.357C272.77 311.37 272.853 311.38 272.947 311.387C273.047 311.393 273.143 311.397 273.237 311.397H274.367C274.64 311.397 274.813 311.36 274.887 311.287C274.96 311.207 275.01 311.073 275.037 310.887H275.227ZM279.627 311.247C279.86 311.247 280.064 311.28 280.237 311.347C280.41 311.413 280.554 311.507 280.667 311.627C280.794 311.76 280.88 311.933 280.927 312.147C280.974 312.36 280.997 312.623 280.997 312.937V315.607C280.997 315.887 281.054 316.077 281.167 316.177C281.287 316.277 281.484 316.327 281.757 316.327V316.537C281.644 316.53 281.47 316.523 281.237 316.517C281.004 316.503 280.777 316.497 280.557 316.497C280.337 316.497 280.12 316.503 279.907 316.517C279.7 316.523 279.544 316.53 279.437 316.537V316.327C279.677 316.327 279.847 316.277 279.947 316.177C280.047 316.077 280.097 315.887 280.097 315.607V312.717C280.097 312.51 280.084 312.32 280.057 312.147C280.03 311.973 279.964 311.833 279.857 311.727C279.75 311.62 279.577 311.567 279.337 311.567C279.077 311.567 278.844 311.647 278.637 311.807C278.437 311.967 278.277 312.187 278.157 312.467C278.044 312.74 277.987 313.047 277.987 313.387V315.607C277.987 315.887 278.037 316.077 278.137 316.177C278.237 316.277 278.407 316.327 278.647 316.327V316.537C278.54 316.53 278.38 316.523 278.167 316.517C277.96 316.503 277.747 316.497 277.527 316.497C277.307 316.497 277.08 316.503 276.847 316.517C276.614 316.523 276.44 316.53 276.327 316.537V316.327C276.6 316.327 276.794 316.277 276.907 316.177C277.027 316.077 277.087 315.887 277.087 315.607V312.477C277.087 312.177 277.034 311.957 276.927 311.817C276.82 311.67 276.62 311.597 276.327 311.597V311.387C276.54 311.407 276.747 311.417 276.947 311.417C277.14 311.417 277.324 311.407 277.497 311.387C277.677 311.36 277.84 311.323 277.987 311.277V312.457C278.16 312.023 278.397 311.713 278.697 311.527C278.997 311.34 279.307 311.247 279.627 311.247ZM282.637 311.247C282.87 311.247 283.074 311.28 283.247 311.347C283.42 311.413 283.564 311.507 283.677 311.627C283.804 311.76 283.89 311.933 283.937 312.147C283.984 312.36 284.007 312.623 284.007 312.937V315.607C284.007 315.887 284.064 316.077 284.177 316.177C284.297 316.277 284.494 316.327 284.767 316.327V316.537C284.654 316.53 284.48 316.523 284.247 316.517C284.014 316.503 283.787 316.497 283.567 316.497C283.347 316.497 283.13 316.503 282.917 316.517C282.71 316.523 282.554 316.53 282.447 316.537V316.327C282.687 316.327 282.857 316.277 282.957 316.177C283.057 316.077 283.107 315.887 283.107 315.607V312.717C283.107 312.51 283.094 312.32 283.067 312.147C283.04 311.973 282.974 311.833 282.867 311.727C282.76 311.62 282.587 311.567 282.347 311.567C282.087 311.567 281.854 311.647 281.647 311.807C281.447 311.967 281.287 312.183 281.167 312.457C281.054 312.73 280.997 313.037 280.997 313.377L280.967 312.447C281.147 311.987 281.39 311.673 281.697 311.507C282.004 311.333 282.317 311.247 282.637 311.247ZM287.654 311.247C288.081 311.247 288.464 311.34 288.804 311.527C289.144 311.713 289.414 312.007 289.614 312.407C289.821 312.807 289.924 313.327 289.924 313.967C289.924 314.607 289.821 315.127 289.614 315.527C289.414 315.92 289.144 316.21 288.804 316.397C288.464 316.583 288.081 316.677 287.654 316.677C287.234 316.677 286.851 316.583 286.504 316.397C286.164 316.21 285.891 315.92 285.684 315.527C285.484 315.127 285.384 314.607 285.384 313.967C285.384 313.327 285.484 312.807 285.684 312.407C285.891 312.007 286.164 311.713 286.504 311.527C286.851 311.34 287.234 311.247 287.654 311.247ZM287.654 311.447C287.274 311.447 286.961 311.643 286.714 312.037C286.474 312.43 286.354 313.073 286.354 313.967C286.354 314.86 286.474 315.503 286.714 315.897C286.961 316.283 287.274 316.477 287.654 316.477C288.034 316.477 288.344 316.283 288.584 315.897C288.831 315.503 288.954 314.86 288.954 313.967C288.954 313.073 288.831 312.43 288.584 312.037C288.344 311.643 288.034 311.447 287.654 311.447Z" fill="black"/>
<g clip-path="url(#clip0_227_480)">
<path d="M268.228 210.185C240.219 270.25 168.822 296.237 108.757 268.228C48.6922 240.219 22.7055 168.822 50.7142 108.757C78.7229 48.6921 150.121 22.7055 210.185 50.7142C270.25 78.7229 296.237 150.121 268.228 210.185Z" fill="#4E4C86"/>
<path d="M67.495 111.05C67.945 111.05 68.34 111.12 68.68 111.26C69.03 111.39 69.3 111.585 69.49 111.845C69.69 112.095 69.79 112.405 69.79 112.775C69.79 113.155 69.675 113.51 69.445 113.84C69.225 114.17 68.925 114.455 68.545 114.695C68.175 114.925 67.755 115.11 67.285 115.25C67.825 115.24 68.325 115.32 68.785 115.49C69.245 115.66 69.615 115.915 69.895 116.255C70.185 116.585 70.33 117.01 70.33 117.53C70.33 117.99 70.215 118.415 69.985 118.805C69.765 119.185 69.46 119.525 69.07 119.825C68.68 120.135 68.23 120.395 67.72 120.605C67.22 120.825 66.695 120.99 66.145 121.1C65.595 121.21 65.05 121.265 64.51 121.265V120.98C65.01 120.97 65.505 120.885 65.995 120.725C66.485 120.575 66.925 120.355 67.315 120.065C67.715 119.785 68.035 119.43 68.275 119C68.515 118.57 68.635 118.08 68.635 117.53C68.635 116.94 68.495 116.455 68.215 116.075C67.935 115.685 67.55 115.47 67.06 115.43C66.91 115.5 66.775 115.56 66.655 115.61C66.535 115.65 66.425 115.67 66.325 115.67C66.245 115.67 66.18 115.655 66.13 115.625C66.09 115.585 66.07 115.53 66.07 115.46C66.07 115.36 66.115 115.285 66.205 115.235C66.295 115.185 66.39 115.16 66.49 115.16C66.57 115.16 66.65 115.17 66.73 115.19C66.82 115.2 66.915 115.21 67.015 115.22C67.435 114.92 67.73 114.59 67.9 114.23C68.08 113.86 68.17 113.49 68.17 113.12C68.17 112.65 68.05 112.31 67.81 112.1C67.58 111.88 67.265 111.77 66.865 111.77C66.455 111.77 66.08 111.88 65.74 112.1C65.4 112.31 65.115 112.63 64.885 113.06L64.615 112.925C64.775 112.595 64.98 112.29 65.23 112.01C65.48 111.72 65.79 111.49 66.16 111.32C66.53 111.14 66.975 111.05 67.495 111.05ZM80.9812 114.455V115.46H75.5662V114.455H80.9812ZM90.9007 110.57C90.9007 111.17 90.9057 111.64 90.9157 111.98C90.9257 112.31 90.9407 112.61 90.9607 112.88C90.8807 112.86 90.7257 112.845 90.4957 112.835C90.2757 112.825 90.0207 112.82 89.7307 112.82C89.4407 112.81 89.1557 112.805 88.8757 112.805H87.0457L86.8507 115.58C87.0707 115.45 87.3307 115.335 87.6307 115.235C87.9407 115.135 88.3207 115.085 88.7707 115.085C89.4007 115.085 89.9157 115.19 90.3157 115.4C90.7257 115.6 91.0257 115.875 91.2157 116.225C91.4157 116.575 91.5157 116.97 91.5157 117.41C91.5157 117.99 91.3607 118.515 91.0507 118.985C90.7407 119.455 90.3257 119.855 89.8057 120.185C89.2957 120.515 88.7307 120.77 88.1107 120.95C87.4907 121.13 86.8657 121.22 86.2357 121.22V120.95C86.6857 120.95 87.1207 120.875 87.5407 120.725C87.9707 120.585 88.3557 120.37 88.6957 120.08C89.0357 119.79 89.3057 119.435 89.5057 119.015C89.7157 118.595 89.8207 118.105 89.8207 117.545C89.8207 116.915 89.6607 116.425 89.3407 116.075C89.0307 115.725 88.5807 115.55 87.9907 115.55C87.7207 115.55 87.4907 115.58 87.3007 115.64C87.1207 115.69 86.9257 115.765 86.7157 115.865L86.5507 115.76L86.8957 111.215C87.0057 111.235 87.1307 111.25 87.2707 111.26C87.4207 111.27 87.5657 111.275 87.7057 111.275H89.6557C90.0257 111.275 90.2657 111.225 90.3757 111.125C90.4957 111.015 90.5707 110.83 90.6007 110.57H90.9007ZM95.0811 107.24V117.605C95.0811 118.025 95.1511 118.31 95.2911 118.46C95.4411 118.61 95.6911 118.685 96.0411 118.685V119C95.8711 118.99 95.6161 118.98 95.2761 118.97C94.9461 118.95 94.6111 118.94 94.2711 118.94C93.9211 118.94 93.5611 118.95 93.1911 118.97C92.8311 118.98 92.5611 118.99 92.3811 119V118.685C92.7711 118.685 93.0461 118.61 93.2061 118.46C93.3761 118.31 93.4611 118.025 93.4611 117.605V109.04C93.4611 108.59 93.3811 108.26 93.2211 108.05C93.0711 107.83 92.7911 107.72 92.3811 107.72V107.405C92.7011 107.435 93.0111 107.45 93.3111 107.45C93.6411 107.45 93.9561 107.435 94.2561 107.405C94.5561 107.365 94.8311 107.31 95.0811 107.24ZM99.8811 111.26V111.56C99.6111 111.6 99.3511 111.69 99.1011 111.83C98.8511 111.97 98.6061 112.165 98.3661 112.415L96.5661 114.305L96.7611 113.93L99.4761 117.905C99.6261 118.115 99.7711 118.29 99.9111 118.43C100.051 118.56 100.226 118.645 100.436 118.685V119C100.306 118.99 100.111 118.98 99.8511 118.97C99.6011 118.95 99.3511 118.94 99.1011 118.94C98.7711 118.94 98.4361 118.95 98.0961 118.97C97.7561 118.98 97.5061 118.99 97.3461 119V118.685C97.5461 118.685 97.6811 118.635 97.7511 118.535C97.8311 118.435 97.8211 118.315 97.7211 118.175L96.0711 115.595C95.9011 115.355 95.7461 115.2 95.6061 115.13C95.4661 115.06 95.2661 115.02 95.0061 115.01V114.71C95.2961 114.68 95.5311 114.625 95.7111 114.545C95.9011 114.465 96.0761 114.335 96.2361 114.155L97.3611 113.015C97.6811 112.695 97.8411 112.43 97.8411 112.22C97.8411 112 97.7361 111.84 97.5261 111.74C97.3261 111.63 97.0561 111.57 96.7161 111.56V111.26C96.9861 111.27 97.2811 111.285 97.6011 111.305C97.9311 111.315 98.2061 111.32 98.4261 111.32C98.6061 111.32 98.7861 111.32 98.9661 111.32C99.1561 111.31 99.3311 111.3 99.4911 111.29C99.6511 111.28 99.7811 111.27 99.8811 111.26ZM103.729 121.82C103.169 121.82 102.649 121.765 102.169 121.655C101.699 121.545 101.319 121.375 101.029 121.145C100.749 120.925 100.609 120.64 100.609 120.29C100.609 119.96 100.749 119.67 101.029 119.42C101.309 119.17 101.704 118.98 102.214 118.85L102.319 119.09C102.109 119.18 101.944 119.325 101.824 119.525C101.714 119.725 101.659 119.945 101.659 120.185C101.659 120.625 101.864 120.965 102.274 121.205C102.684 121.445 103.224 121.565 103.894 121.565C104.344 121.565 104.769 121.505 105.169 121.385C105.579 121.275 105.909 121.09 106.159 120.83C106.419 120.57 106.549 120.235 106.549 119.825C106.549 119.505 106.434 119.235 106.204 119.015C105.974 118.805 105.519 118.7 104.839 118.7H103.789C103.439 118.7 103.114 118.67 102.814 118.61C102.514 118.55 102.269 118.435 102.079 118.265C101.899 118.085 101.809 117.835 101.809 117.515C101.809 117.155 101.959 116.815 102.259 116.495C102.559 116.175 103.064 115.86 103.774 115.55L103.954 115.685C103.664 115.845 103.404 116.01 103.174 116.18C102.954 116.34 102.844 116.54 102.844 116.78C102.844 117.1 103.074 117.26 103.534 117.26H105.319C105.789 117.26 106.214 117.325 106.594 117.455C106.974 117.575 107.279 117.77 107.509 118.04C107.739 118.31 107.854 118.665 107.854 119.105C107.854 119.575 107.699 120.015 107.389 120.425C107.089 120.845 106.634 121.18 106.024 121.43C105.414 121.69 104.649 121.82 103.729 121.82ZM103.819 115.805C103.309 115.805 102.844 115.725 102.424 115.565C102.004 115.395 101.674 115.135 101.434 114.785C101.194 114.435 101.074 113.985 101.074 113.435C101.074 112.885 101.194 112.435 101.434 112.085C101.674 111.725 102.004 111.465 102.424 111.305C102.844 111.135 103.309 111.05 103.819 111.05C104.349 111.05 104.819 111.135 105.229 111.305C105.639 111.465 105.964 111.725 106.204 112.085C106.444 112.435 106.564 112.885 106.564 113.435C106.564 113.985 106.444 114.435 106.204 114.785C105.964 115.135 105.639 115.395 105.229 115.565C104.819 115.725 104.349 115.805 103.819 115.805ZM103.819 115.535C104.169 115.535 104.439 115.385 104.629 115.085C104.819 114.785 104.914 114.235 104.914 113.435C104.914 112.635 104.819 112.085 104.629 111.785C104.439 111.475 104.169 111.32 103.819 111.32C103.489 111.32 103.224 111.475 103.024 111.785C102.824 112.085 102.724 112.635 102.724 113.435C102.724 114.235 102.824 114.785 103.024 115.085C103.224 115.385 103.489 115.535 103.819 115.535ZM106.039 112.31L105.769 112.205C105.909 111.855 106.149 111.55 106.489 111.29C106.829 111.03 107.184 110.9 107.554 110.9C107.834 110.9 108.054 110.98 108.214 111.14C108.384 111.29 108.469 111.505 108.469 111.785C108.469 112.095 108.384 112.315 108.214 112.445C108.054 112.575 107.884 112.64 107.704 112.64C107.544 112.64 107.394 112.585 107.254 112.475C107.124 112.365 107.049 112.195 107.029 111.965C107.009 111.725 107.084 111.42 107.254 111.05L107.419 111.11C107.019 111.27 106.724 111.44 106.534 111.62C106.354 111.79 106.189 112.02 106.039 112.31Z" fill="white"/>
</g>
<g clip-path="url(#clip1_227_480)">
<path d="M59.6368 114.29C31.817 174.443 58.0278 245.758 118.18 273.578C178.333 301.398 249.648 275.187 277.468 215.035C305.288 154.882 279.077 83.5665 218.925 55.7467C158.772 27.9268 87.4567 54.1376 59.6368 114.29Z" fill="#96B04D"/>
<path d="M155.695 247.05C156.435 247.05 157.085 247.215 157.645 247.545C158.215 247.865 158.66 248.325 158.98 248.925C159.31 249.515 159.475 250.21 159.475 251.01C159.475 251.81 159.305 252.53 158.965 253.17C158.635 253.8 158.175 254.3 157.585 254.67C157.005 255.03 156.32 255.21 155.53 255.21C154.81 255.21 154.16 255.05 153.58 254.73C153.01 254.4 152.56 253.94 152.23 253.35C151.91 252.75 151.75 252.05 151.75 251.25C151.75 250.46 151.91 249.75 152.23 249.12C152.56 248.48 153.02 247.975 153.61 247.605C154.21 247.235 154.905 247.05 155.695 247.05ZM155.56 247.32C154.95 247.32 154.45 247.665 154.06 248.355C153.67 249.035 153.475 249.985 153.475 251.205C153.475 252.105 153.575 252.83 153.775 253.38C153.975 253.92 154.24 254.315 154.57 254.565C154.91 254.815 155.275 254.94 155.665 254.94C156.275 254.94 156.775 254.6 157.165 253.92C157.555 253.23 157.75 252.275 157.75 251.055C157.75 250.155 157.65 249.43 157.45 248.88C157.25 248.33 156.98 247.935 156.64 247.695C156.31 247.445 155.95 247.32 155.56 247.32ZM162.164 253.155C162.464 253.155 162.714 253.255 162.914 253.455C163.124 253.645 163.229 253.89 163.229 254.19C163.229 254.48 163.124 254.725 162.914 254.925C162.714 255.115 162.464 255.21 162.164 255.21C161.864 255.21 161.609 255.115 161.399 254.925C161.199 254.725 161.099 254.48 161.099 254.19C161.099 253.89 161.199 253.645 161.399 253.455C161.609 253.255 161.864 253.155 162.164 253.155ZM167.906 247.05C168.626 247.05 169.196 247.215 169.616 247.545C170.036 247.875 170.246 248.345 170.246 248.955C170.246 249.345 170.151 249.715 169.961 250.065C169.771 250.405 169.521 250.73 169.211 251.04C168.911 251.35 168.586 251.65 168.236 251.94C167.886 252.23 167.546 252.515 167.216 252.795C166.896 253.065 166.621 253.345 166.391 253.635H169.511C169.921 253.635 170.181 253.58 170.291 253.47C170.401 253.36 170.476 253.17 170.516 252.9H170.786C170.786 253.48 170.791 253.925 170.801 254.235C170.811 254.545 170.826 254.825 170.846 255.075C170.756 255.055 170.591 255.04 170.351 255.03C170.111 255.02 169.836 255.01 169.526 255C169.216 255 168.911 255 168.611 255H164.816V254.73C165.106 254.41 165.461 254.065 165.881 253.695C166.301 253.325 166.706 252.92 167.096 252.48C167.496 252.04 167.826 251.56 168.086 251.04C168.356 250.51 168.491 249.94 168.491 249.33C168.491 248.77 168.361 248.365 168.101 248.115C167.851 247.865 167.491 247.74 167.021 247.74C166.611 247.74 166.236 247.855 165.896 248.085C165.566 248.305 165.271 248.635 165.011 249.075L164.771 248.925C164.941 248.605 165.161 248.305 165.431 248.025C165.701 247.735 166.036 247.5 166.436 247.32C166.846 247.14 167.336 247.05 167.906 247.05ZM181.531 250.455V251.46H176.116V250.455H181.531ZM190.881 247.05C191.621 247.05 192.271 247.215 192.831 247.545C193.401 247.865 193.846 248.325 194.166 248.925C194.496 249.515 194.661 250.21 194.661 251.01C194.661 251.81 194.491 252.53 194.151 253.17C193.821 253.8 193.361 254.3 192.771 254.67C192.191 255.03 191.506 255.21 190.716 255.21C189.996 255.21 189.346 255.05 188.766 254.73C188.196 254.4 187.746 253.94 187.416 253.35C187.096 252.75 186.936 252.05 186.936 251.25C186.936 250.46 187.096 249.75 187.416 249.12C187.746 248.48 188.206 247.975 188.796 247.605C189.396 247.235 190.091 247.05 190.881 247.05ZM190.746 247.32C190.136 247.32 189.636 247.665 189.246 248.355C188.856 249.035 188.661 249.985 188.661 251.205C188.661 252.105 188.761 252.83 188.961 253.38C189.161 253.92 189.426 254.315 189.756 254.565C190.096 254.815 190.461 254.94 190.851 254.94C191.461 254.94 191.961 254.6 192.351 253.92C192.741 253.23 192.936 252.275 192.936 251.055C192.936 250.155 192.836 249.43 192.636 248.88C192.436 248.33 192.166 247.935 191.826 247.695C191.496 247.445 191.136 247.32 190.746 247.32ZM197.349 253.155C197.649 253.155 197.899 253.255 198.099 253.455C198.309 253.645 198.414 253.89 198.414 254.19C198.414 254.48 198.309 254.725 198.099 254.925C197.899 255.115 197.649 255.21 197.349 255.21C197.049 255.21 196.794 255.115 196.584 254.925C196.384 254.725 196.284 254.48 196.284 254.19C196.284 253.89 196.384 253.645 196.584 253.455C196.794 253.255 197.049 253.155 197.349 253.155ZM204.473 246.57C204.473 247.17 204.478 247.64 204.488 247.98C204.498 248.31 204.513 248.61 204.533 248.88C204.453 248.86 204.298 248.845 204.068 248.835C203.848 248.825 203.593 248.82 203.303 248.82C203.013 248.81 202.728 248.805 202.448 248.805H200.618L200.423 251.58C200.643 251.45 200.903 251.335 201.203 251.235C201.513 251.135 201.893 251.085 202.343 251.085C202.973 251.085 203.488 251.19 203.888 251.4C204.298 251.6 204.598 251.875 204.788 252.225C204.988 252.575 205.088 252.97 205.088 253.41C205.088 253.99 204.933 254.515 204.623 254.985C204.313 255.455 203.898 255.855 203.378 256.185C202.868 256.515 202.303 256.77 201.683 256.95C201.063 257.13 200.438 257.22 199.808 257.22V256.95C200.258 256.95 200.693 256.875 201.113 256.725C201.543 256.585 201.928 256.37 202.268 256.08C202.608 255.79 202.878 255.435 203.078 255.015C203.288 254.595 203.393 254.105 203.393 253.545C203.393 252.915 203.233 252.425 202.913 252.075C202.603 251.725 202.153 251.55 201.563 251.55C201.293 251.55 201.063 251.58 200.873 251.64C200.693 251.69 200.498 251.765 200.288 251.865L200.123 251.76L200.468 247.215C200.578 247.235 200.703 247.25 200.843 247.26C200.993 247.27 201.138 247.275 201.278 247.275H203.228C203.598 247.275 203.838 247.225 203.948 247.125C204.068 247.015 204.143 246.83 204.173 246.57H204.473ZM208.653 243.24V253.605C208.653 254.025 208.723 254.31 208.863 254.46C209.013 254.61 209.263 254.685 209.613 254.685V255C209.443 254.99 209.188 254.98 208.848 254.97C208.518 254.95 208.183 254.94 207.843 254.94C207.493 254.94 207.133 254.95 206.763 254.97C206.403 254.98 206.133 254.99 205.953 255V254.685C206.343 254.685 206.618 254.61 206.778 254.46C206.948 254.31 207.033 254.025 207.033 253.605V245.04C207.033 244.59 206.953 244.26 206.793 244.05C206.643 243.83 206.363 243.72 205.953 243.72V243.405C206.273 243.435 206.583 243.45 206.883 243.45C207.213 243.45 207.528 243.435 207.828 243.405C208.128 243.365 208.403 243.31 208.653 243.24ZM213.453 247.26V247.56C213.183 247.6 212.923 247.69 212.673 247.83C212.423 247.97 212.178 248.165 211.938 248.415L210.138 250.305L210.333 249.93L213.048 253.905C213.198 254.115 213.343 254.29 213.483 254.43C213.623 254.56 213.798 254.645 214.008 254.685V255C213.878 254.99 213.683 254.98 213.423 254.97C213.173 254.95 212.923 254.94 212.673 254.94C212.343 254.94 212.008 254.95 211.668 254.97C211.328 254.98 211.078 254.99 210.918 255V254.685C211.118 254.685 211.253 254.635 211.323 254.535C211.403 254.435 211.393 254.315 211.293 254.175L209.643 251.595C209.473 251.355 209.318 251.2 209.178 251.13C209.038 251.06 208.838 251.02 208.578 251.01V250.71C208.868 250.68 209.103 250.625 209.283 250.545C209.473 250.465 209.648 250.335 209.808 250.155L210.933 249.015C211.253 248.695 211.413 248.43 211.413 248.22C211.413 248 211.308 247.84 211.098 247.74C210.898 247.63 210.628 247.57 210.288 247.56V247.26C210.558 247.27 210.853 247.285 211.173 247.305C211.503 247.315 211.778 247.32 211.998 247.32C212.178 247.32 212.358 247.32 212.538 247.32C212.728 247.31 212.903 247.3 213.063 247.29C213.223 247.28 213.353 247.27 213.453 247.26ZM217.301 257.82C216.741 257.82 216.221 257.765 215.741 257.655C215.271 257.545 214.891 257.375 214.601 257.145C214.321 256.925 214.181 256.64 214.181 256.29C214.181 255.96 214.321 255.67 214.601 255.42C214.881 255.17 215.276 254.98 215.786 254.85L215.891 255.09C215.681 255.18 215.516 255.325 215.396 255.525C215.286 255.725 215.231 255.945 215.231 256.185C215.231 256.625 215.436 256.965 215.846 257.205C216.256 257.445 216.796 257.565 217.466 257.565C217.916 257.565 218.341 257.505 218.741 257.385C219.151 257.275 219.481 257.09 219.731 256.83C219.991 256.57 220.121 256.235 220.121 255.825C220.121 255.505 220.006 255.235 219.776 255.015C219.546 254.805 219.091 254.7 218.411 254.7H217.361C217.011 254.7 216.686 254.67 216.386 254.61C216.086 254.55 215.841 254.435 215.651 254.265C215.471 254.085 215.381 253.835 215.381 253.515C215.381 253.155 215.531 252.815 215.831 252.495C216.131 252.175 216.636 251.86 217.346 251.55L217.526 251.685C217.236 251.845 216.976 252.01 216.746 252.18C216.526 252.34 216.416 252.54 216.416 252.78C216.416 253.1 216.646 253.26 217.106 253.26H218.891C219.361 253.26 219.786 253.325 220.166 253.455C220.546 253.575 220.851 253.77 221.081 254.04C221.311 254.31 221.426 254.665 221.426 255.105C221.426 255.575 221.271 256.015 220.961 256.425C220.661 256.845 220.206 257.18 219.596 257.43C218.986 257.69 218.221 257.82 217.301 257.82ZM217.391 251.805C216.881 251.805 216.416 251.725 215.996 251.565C215.576 251.395 215.246 251.135 215.006 250.785C214.766 250.435 214.646 249.985 214.646 249.435C214.646 248.885 214.766 248.435 215.006 248.085C215.246 247.725 215.576 247.465 215.996 247.305C216.416 247.135 216.881 247.05 217.391 247.05C217.921 247.05 218.391 247.135 218.801 247.305C219.211 247.465 219.536 247.725 219.776 248.085C220.016 248.435 220.136 248.885 220.136 249.435C220.136 249.985 220.016 250.435 219.776 250.785C219.536 251.135 219.211 251.395 218.801 251.565C218.391 251.725 217.921 251.805 217.391 251.805ZM217.391 251.535C217.741 251.535 218.011 251.385 218.201 251.085C218.391 250.785 218.486 250.235 218.486 249.435C218.486 248.635 218.391 248.085 218.201 247.785C218.011 247.475 217.741 247.32 217.391 247.32C217.061 247.32 216.796 247.475 216.596 247.785C216.396 248.085 216.296 248.635 216.296 249.435C216.296 250.235 216.396 250.785 216.596 251.085C216.796 251.385 217.061 251.535 217.391 251.535ZM219.611 248.31L219.341 248.205C219.481 247.855 219.721 247.55 220.061 247.29C220.401 247.03 220.756 246.9 221.126 246.9C221.406 246.9 221.626 246.98 221.786 247.14C221.956 247.29 222.041 247.505 222.041 247.785C222.041 248.095 221.956 248.315 221.786 248.445C221.626 248.575 221.456 248.64 221.276 248.64C221.116 248.64 220.966 248.585 220.826 248.475C220.696 248.365 220.621 248.195 220.601 247.965C220.581 247.725 220.656 247.42 220.826 247.05L220.991 247.11C220.591 247.27 220.296 247.44 220.106 247.62C219.926 247.79 219.761 248.02 219.611 248.31Z" fill="white"/>
</g>
<g clip-path="url(#clip2_227_480)">
<path d="M60.2688 112.922C88.0878 52.7687 159.403 26.557 219.556 54.3761C279.709 82.1952 305.921 153.511 278.101 213.663C250.282 273.816 178.967 300.028 118.814 272.209C58.6614 244.39 32.4497 173.074 60.2688 112.922Z" fill="#8778A4"/>
<path d="M235.945 132.095L235.945 138.485C235.945 138.955 236.045 139.275 236.245 139.445C236.445 139.605 236.785 139.685 237.265 139.685L237.265 140C237.065 139.99 236.77 139.98 236.38 139.97C236 139.95 235.605 139.94 235.195 139.94C234.715 139.94 234.255 139.95 233.815 139.97C233.375 139.98 233.035 139.99 232.795 140L232.795 139.685C233.275 139.685 233.65 139.605 233.92 139.445C234.19 139.275 234.325 138.945 234.325 138.455L234.325 134.81C234.325 134.33 234.275 133.975 234.175 133.745C234.085 133.515 233.915 133.365 233.665 133.295C233.425 133.225 233.095 133.19 232.675 133.19L232.675 132.86C233.435 132.84 234.07 132.775 234.58 132.665C235.09 132.555 235.545 132.365 235.945 132.095ZM247.677 135.455L247.677 136.46L242.262 136.46L242.262 135.455L247.677 135.455ZM256.098 132.05C256.818 132.05 257.388 132.215 257.808 132.545C258.228 132.875 258.438 133.345 258.438 133.955C258.438 134.345 258.343 134.715 258.153 135.065C257.963 135.405 257.713 135.73 257.403 136.04C257.103 136.35 256.778 136.65 256.428 136.94C256.078 137.23 255.738 137.515 255.408 137.795C255.088 138.065 254.813 138.345 254.583 138.635L257.703 138.635C258.113 138.635 258.373 138.58 258.483 138.47C258.593 138.36 258.668 138.17 258.708 137.9L258.978 137.9C258.978 138.48 258.983 138.925 258.993 139.235C259.003 139.545 259.018 139.825 259.038 140.075C258.948 140.055 258.783 140.04 258.543 140.03C258.303 140.02 258.028 140.01 257.718 140C257.408 140 257.103 140 256.803 140L253.008 140L253.008 139.73C253.298 139.41 253.653 139.065 254.073 138.695C254.493 138.325 254.898 137.92 255.288 137.48C255.688 137.04 256.018 136.56 256.278 136.04C256.548 135.51 256.683 134.94 256.683 134.33C256.683 133.77 256.553 133.365 256.293 133.115C256.043 132.865 255.683 132.74 255.213 132.74C254.803 132.74 254.428 132.855 254.088 133.085C253.758 133.305 253.463 133.635 253.203 134.075L252.963 133.925C253.133 133.605 253.353 133.305 253.623 133.025C253.893 132.735 254.228 132.5 254.628 132.32C255.038 132.14 255.528 132.05 256.098 132.05ZM262.7 128.24L262.7 138.605C262.7 139.025 262.77 139.31 262.91 139.46C263.06 139.61 263.31 139.685 263.66 139.685L263.66 140C263.49 139.99 263.235 139.98 262.895 139.97C262.565 139.95 262.23 139.94 261.89 139.94C261.54 139.94 261.18 139.95 260.81 139.97C260.45 139.98 260.18 139.99 260 140L260 139.685C260.39 139.685 260.665 139.61 260.825 139.46C260.995 139.31 261.08 139.025 261.08 138.605L261.08 130.04C261.08 129.59 261 129.26 260.84 129.05C260.69 128.83 260.41 128.72 260 128.72L260 128.405C260.32 128.435 260.63 128.45 260.93 128.45C261.26 128.45 261.575 128.435 261.875 128.405C262.175 128.365 262.45 128.31 262.7 128.24ZM267.5 132.26L267.5 132.56C267.23 132.6 266.97 132.69 266.72 132.83C266.47 132.97 266.225 133.165 265.985 133.415L264.185 135.305L264.38 134.93L267.095 138.905C267.245 139.115 267.39 139.29 267.53 139.43C267.67 139.56 267.845 139.645 268.055 139.685L268.055 140C267.925 139.99 267.73 139.98 267.47 139.97C267.22 139.95 266.97 139.94 266.72 139.94C266.39 139.94 266.055 139.95 265.715 139.97C265.375 139.98 265.125 139.99 264.965 140L264.965 139.685C265.165 139.685 265.3 139.635 265.37 139.535C265.45 139.435 265.44 139.315 265.34 139.175L263.69 136.595C263.52 136.355 263.365 136.2 263.225 136.13C263.085 136.06 262.885 136.02 262.625 136.01L262.625 135.71C262.915 135.68 263.15 135.625 263.33 135.545C263.52 135.465 263.695 135.335 263.855 135.155L264.98 134.015C265.3 133.695 265.46 133.43 265.46 133.22C265.46 133 265.355 132.84 265.145 132.74C264.945 132.63 264.675 132.57 264.335 132.56L264.335 132.26C264.605 132.27 264.9 132.285 265.22 132.305C265.55 132.315 265.825 132.32 266.045 132.32C266.225 132.32 266.405 132.32 266.585 132.32C266.775 132.31 266.95 132.3 267.11 132.29C267.27 132.28 267.4 132.27 267.5 132.26ZM271.348 142.82C270.788 142.82 270.268 142.765 269.788 142.655C269.318 142.545 268.938 142.375 268.648 142.145C268.368 141.925 268.228 141.64 268.228 141.29C268.228 140.96 268.368 140.67 268.648 140.42C268.928 140.17 269.323 139.98 269.833 139.85L269.938 140.09C269.728 140.18 269.563 140.325 269.443 140.525C269.333 140.725 269.278 140.945 269.278 141.185C269.278 141.625 269.483 141.965 269.893 142.205C270.303 142.445 270.843 142.565 271.513 142.565C271.963 142.565 272.388 142.505 272.788 142.385C273.198 142.275 273.528 142.09 273.778 141.83C274.038 141.57 274.168 141.235 274.168 140.825C274.168 140.505 274.053 140.235 273.823 140.015C273.593 139.805 273.138 139.7 272.458 139.7L271.408 139.7C271.058 139.7 270.733 139.67 270.433 139.61C270.133 139.55 269.888 139.435 269.698 139.265C269.518 139.085 269.428 138.835 269.428 138.515C269.428 138.155 269.578 137.815 269.878 137.495C270.178 137.175 270.683 136.86 271.393 136.55L271.573 136.685C271.283 136.845 271.023 137.01 270.793 137.18C270.573 137.34 270.463 137.54 270.463 137.78C270.463 138.1 270.693 138.26 271.153 138.26L272.938 138.26C273.408 138.26 273.833 138.325 274.213 138.455C274.593 138.575 274.898 138.77 275.128 139.04C275.358 139.31 275.473 139.665 275.473 140.105C275.473 140.575 275.318 141.015 275.008 141.425C274.708 141.845 274.253 142.18 273.643 142.43C273.033 142.69 272.268 142.82 271.348 142.82ZM271.438 136.805C270.928 136.805 270.463 136.725 270.043 136.565C269.623 136.395 269.293 136.135 269.053 135.785C268.813 135.435 268.693 134.985 268.693 134.435C268.693 133.885 268.813 133.435 269.053 133.085C269.293 132.725 269.623 132.465 270.043 132.305C270.463 132.135 270.928 132.05 271.438 132.05C271.968 132.05 272.438 132.135 272.848 132.305C273.258 132.465 273.583 132.725 273.823 133.085C274.063 133.435 274.183 133.885 274.183 134.435C274.183 134.985 274.063 135.435 273.823 135.785C273.583 136.135 273.258 136.395 272.848 136.565C272.438 136.725 271.968 136.805 271.438 136.805ZM271.438 136.535C271.788 136.535 272.058 136.385 272.248 136.085C272.438 135.785 272.533 135.235 272.533 134.435C272.533 133.635 272.438 133.085 272.248 132.785C272.058 132.475 271.788 132.32 271.438 132.32C271.108 132.32 270.843 132.475 270.643 132.785C270.443 133.085 270.343 133.635 270.343 134.435C270.343 135.235 270.443 135.785 270.643 136.085C270.843 136.385 271.108 136.535 271.438 136.535ZM273.658 133.31L273.388 133.205C273.528 132.855 273.768 132.55 274.108 132.29C274.448 132.03 274.803 131.9 275.173 131.9C275.453 131.9 275.673 131.98 275.833 132.14C276.003 132.29 276.088 132.505 276.088 132.785C276.088 133.095 276.003 133.315 275.833 133.445C275.673 133.575 275.503 133.64 275.323 133.64C275.163 133.64 275.013 133.585 274.873 133.475C274.743 133.365 274.668 133.195 274.648 132.965C274.628 132.725 274.703 132.42 274.873 132.05L275.038 132.11C274.638 132.27 274.343 132.44 274.153 132.62C273.973 132.79 273.808 133.02 273.658 133.31Z" fill="white"/>
</g>
<circle cx="163.999" cy="164.537" r="61" fill="#F5F7FB"/>
<defs>
<clipPath id="clip0_227_480">
<rect width="112.816" height="240" fill="white" transform="translate(101.428) rotate(25)"/>
</clipPath>
<clipPath id="clip1_227_480">
<rect width="130.044" height="109.366" fill="white" transform="matrix(-0.907631 -0.419769 -0.419769 0.907631 272.24 226.339)"/>
</clipPath>
<clipPath id="clip2_227_480">
<rect width="130.91" height="124.403" fill="white" transform="translate(276.253 217.659) rotate(-155.181)"/>
</clipPath>
</defs>
</svg>
