<svg width="35" height="36" viewBox="0 0 35 36" fill="none" xmlns="http://www.w3.org/2000/svg">
<g clip-path="url(#clip0_319_185)">
<path fill-rule="evenodd" clip-rule="evenodd" d="M17.4998 12.0341C15.9176 12.0341 14.4001 12.6626 13.2813 13.7814C12.1625 14.9003 11.5339 16.4177 11.5339 18C11.5339 19.5822 12.1625 21.0997 13.2813 22.2185C14.4001 23.3373 15.9176 23.9659 17.4998 23.9659C19.0821 23.9659 20.5996 23.3373 21.7184 22.2185C22.8372 21.0997 23.4658 19.5822 23.4658 18C23.4658 16.4177 22.8372 14.9003 21.7184 13.7814C20.5996 12.6626 19.0821 12.0341 17.4998 12.0341ZM13.9203 18C13.9203 17.0506 14.2974 16.1401 14.9687 15.4688C15.64 14.7976 16.5505 14.4204 17.4998 14.4204C18.4492 14.4204 19.3597 14.7976 20.031 15.4688C20.7023 16.1401 21.0794 17.0506 21.0794 18C21.0794 18.9493 20.7023 19.8598 20.031 20.5311C19.3597 21.2024 18.4492 21.5795 17.4998 21.5795C16.5505 21.5795 15.64 21.2024 14.9687 20.5311C14.2974 19.8598 13.9203 18.9493 13.9203 18Z" fill="#4E4C86"/>
<path fill-rule="evenodd" clip-rule="evenodd" d="M17.4602 0.897705C16.7522 0.897705 16.162 0.897705 15.6783 0.929523C15.1839 0.949436 14.6962 1.05159 14.2354 1.2318C13.7044 1.45148 13.2219 1.77362 12.8155 2.1798C12.409 2.58598 12.0866 3.06825 11.8665 3.59907C11.6358 4.15589 11.5738 4.74452 11.5483 5.38407C11.5455 5.6179 11.4835 5.84721 11.368 6.05057C11.2525 6.25394 11.0874 6.42474 10.8881 6.54702C10.6826 6.6589 10.4521 6.71685 10.2181 6.71546C9.98413 6.71407 9.75432 6.65338 9.55016 6.53907C8.98379 6.23998 8.44289 5.99975 7.8447 5.9202C7.27507 5.84528 6.69626 5.88328 6.14131 6.03205C5.58636 6.18082 5.06616 6.43744 4.61039 6.78725C4.22442 7.09665 3.89268 7.46817 3.62879 7.88657C3.35834 8.29066 3.06243 8.80134 2.70925 9.41384L2.66948 9.48384C2.3147 10.0963 2.02038 10.607 1.8072 11.0429C1.58448 11.4979 1.40948 11.9466 1.34584 12.4429C1.19407 13.5931 1.50538 14.7565 2.21129 15.6772C2.57879 16.1561 3.05766 16.5045 3.59857 16.845C3.80003 16.9644 3.96788 17.1331 4.08642 17.3351C4.20495 17.5371 4.27028 17.7658 4.27629 18C4.27028 18.2341 4.20495 18.4629 4.08642 18.6649C3.96788 18.8669 3.80003 19.0355 3.59857 19.155C3.05766 19.4954 2.58039 19.8438 2.21129 20.3227C1.86148 20.7785 1.60486 21.2987 1.45609 21.8536C1.30733 22.4086 1.26932 22.9874 1.34425 23.557C1.40948 24.0534 1.58288 24.502 1.80561 24.957C2.02038 25.3929 2.3147 25.9036 2.66948 26.5161L2.70925 26.5861C3.06243 27.1986 3.35834 27.7093 3.62879 28.1134C3.91038 28.5318 4.21266 28.9088 4.61039 29.2111C5.06604 29.5612 5.58619 29.8181 6.14114 29.9672C6.69609 30.1162 7.27497 30.1545 7.8447 30.0797C8.44289 30.0002 8.98379 29.7616 9.55016 29.4609C9.75413 29.3469 9.98364 29.2863 10.2173 29.2849C10.451 29.2835 10.6812 29.3413 10.8865 29.4529C11.0875 29.5737 11.254 29.7441 11.3702 29.9477C11.4864 30.1514 11.5483 30.3814 11.5499 30.6159C11.5738 31.2554 11.6358 31.8441 11.8681 32.4009C12.0878 32.9319 12.4099 33.4143 12.8161 33.8208C13.2223 34.2272 13.7046 34.5497 14.2354 34.7697C14.6967 34.9607 15.174 35.0354 15.6783 35.0688C16.162 35.1022 16.7522 35.1022 17.4602 35.1022H17.5397C18.2477 35.1022 18.8379 35.1022 19.3215 35.0704C19.8274 35.0354 20.3031 34.9607 20.7645 34.7682C21.2954 34.5485 21.7779 34.2263 22.1844 33.8202C22.5908 33.414 22.9133 32.9317 23.1333 32.4009C23.364 31.8441 23.4261 31.2554 23.4515 30.6159C23.4541 30.3818 23.516 30.1522 23.6315 29.9485C23.7469 29.7448 23.9122 29.5738 24.1117 29.4513C24.3174 29.3397 24.548 29.282 24.782 29.2837C25.0159 29.2854 25.2457 29.3463 25.4497 29.4609C26.0161 29.76 26.557 30.0002 27.1552 30.0782C28.3054 30.2299 29.4688 29.9186 30.3895 29.2127C30.7872 28.9072 31.0895 28.5318 31.3711 28.1134C31.6415 27.7093 31.9374 27.1986 32.2906 26.5861L32.3304 26.5161C32.6852 25.9036 32.9795 25.3929 33.1927 24.957C33.4154 24.502 33.5904 24.0518 33.654 23.557C33.8058 22.4068 33.4945 21.2434 32.7886 20.3227C32.4211 19.8438 31.9422 19.4954 31.4013 19.155C31.1998 19.0355 31.032 18.8669 30.9134 18.6649C30.7949 18.4629 30.7296 18.2341 30.7236 18C30.7236 17.5577 30.9654 17.1186 31.4013 16.845C31.9422 16.5045 32.4195 16.1561 32.7886 15.6772C33.1384 15.2215 33.395 14.7013 33.5438 14.1463C33.6925 13.5914 33.7305 13.0126 33.6556 12.4429C33.5806 11.9539 33.4247 11.4807 33.1942 11.0429C32.9225 10.5144 32.6344 9.99445 32.3304 9.48384L32.2906 9.41384C32 8.89533 31.6934 8.38599 31.3711 7.88657C31.107 7.46874 30.7753 7.09776 30.3895 6.78884C29.9338 6.43875 29.4137 6.18185 28.8587 6.0328C28.3038 5.88376 27.7249 5.8455 27.1552 5.9202C26.557 5.99975 26.0161 6.23839 25.4497 6.53907C25.2457 6.6531 25.0162 6.71363 24.7825 6.71502C24.5489 6.71641 24.3186 6.65861 24.1133 6.54702C23.9134 6.42512 23.7477 6.25449 23.6317 6.0511C23.5156 5.84771 23.4531 5.6182 23.4499 5.38407C23.4261 4.74452 23.364 4.15589 23.1317 3.59907C22.9121 3.0681 22.5899 2.58561 22.1837 2.17916C21.7776 1.77271 21.2953 1.45025 20.7645 1.23021C20.3031 1.0393 19.8258 0.964523 19.3215 0.931114C18.8379 0.897705 18.2477 0.897705 17.5397 0.897705H17.4602ZM15.1486 3.4352C15.2711 3.3843 15.4572 3.33816 15.8406 3.31111C16.2336 3.28407 16.7427 3.28407 17.4999 3.28407C18.2572 3.28407 18.7663 3.28407 19.1592 3.31111C19.5427 3.33816 19.7288 3.3843 19.8513 3.4352C20.3397 3.63725 20.7263 4.02384 20.9283 4.51225C20.992 4.66498 21.0445 4.9052 21.0652 5.47316C21.1129 6.73316 21.7636 7.94702 22.9186 8.61361C24.0736 9.2802 25.4497 9.23725 26.5649 8.64861C27.0677 8.38293 27.3015 8.30816 27.467 8.28748C27.9897 8.21841 28.5184 8.35975 28.937 8.68043C29.042 8.76157 29.1756 8.89998 29.3904 9.21816C29.6115 9.54589 29.8661 9.98657 30.2447 10.642C30.6233 11.2975 30.8763 11.7397 31.0497 12.0929C31.2199 12.4382 31.2724 12.6227 31.2883 12.7547C31.3574 13.2775 31.2161 13.8062 30.8954 14.2247C30.7936 14.3568 30.6122 14.5222 30.1318 14.8245C29.0627 15.4959 28.3372 16.6668 28.3372 18C28.3372 19.3332 29.0627 20.5041 30.1318 21.1754C30.6122 21.4777 30.7936 21.6432 30.8954 21.7752C31.2167 22.1936 31.3567 22.7218 31.2883 23.2452C31.2724 23.3772 31.2183 23.5634 31.0497 23.907C30.8763 24.2618 30.6233 24.7025 30.2447 25.3579C29.8661 26.0134 29.6099 26.4541 29.3904 26.7818C29.1756 27.1 29.042 27.2384 28.937 27.3195C28.5184 27.6402 27.9897 27.7815 27.467 27.7125C27.3015 27.6918 27.0692 27.617 26.5649 27.3513C25.4513 26.7627 24.0736 26.7182 22.9186 27.3847C21.7636 28.0513 21.1129 29.2668 21.0652 30.5268C21.0445 31.0947 20.992 31.335 20.9283 31.4877C20.8284 31.7292 20.6818 31.9486 20.497 32.1334C20.3122 32.3182 20.0928 32.4648 19.8513 32.5647C19.7288 32.6157 19.5427 32.6618 19.1592 32.6888C18.7663 32.7159 18.2572 32.7159 17.4999 32.7159C16.7427 32.7159 16.2336 32.7159 15.8406 32.6888C15.4572 32.6618 15.2711 32.6157 15.1486 32.5647C14.9071 32.4648 14.6876 32.3182 14.5028 32.1334C14.318 31.9486 14.1715 31.7292 14.0715 31.4877C14.0079 31.335 13.9554 31.0947 13.9347 30.5268C13.887 29.2668 13.2363 28.0529 12.0813 27.3863C10.9263 26.7197 9.55016 26.7627 8.43493 27.3513C7.9322 27.617 7.69834 27.6918 7.53289 27.7125C7.01017 27.7815 6.48142 27.6402 6.06288 27.3195C5.95788 27.2384 5.82425 27.1 5.60948 26.7818C5.3102 26.316 5.02529 25.8412 4.75516 25.3579C4.37652 24.7025 4.12357 24.2602 3.95016 23.907C3.77993 23.5618 3.72743 23.3772 3.71152 23.2452C3.64245 22.7225 3.78379 22.1937 4.10448 21.7752C4.20629 21.6432 4.38766 21.4777 4.86811 21.1754C5.9372 20.5041 6.66266 19.3332 6.66266 18C6.66266 16.6668 5.9372 15.4959 4.86811 14.8245C4.38766 14.5222 4.20629 14.3568 4.10448 14.2247C3.78379 13.8062 3.64245 13.2775 3.71152 12.7547C3.72743 12.6227 3.78152 12.4366 3.95016 12.0929C4.12357 11.7382 4.37652 11.2975 4.75516 10.642C5.13379 9.98657 5.38993 9.54589 5.60948 9.21816C5.82425 8.89998 5.95788 8.76157 6.06288 8.68043C6.48142 8.35975 7.01017 8.21841 7.53289 8.28748C7.69834 8.30816 7.93061 8.38293 8.43493 8.64861C9.54857 9.23725 10.9263 9.2818 12.0813 8.61361C13.2363 7.94702 13.887 6.73316 13.9347 5.47316C13.9554 4.9052 14.0079 4.66498 14.0715 4.51225C14.2736 4.02384 14.6602 3.63725 15.1486 3.4352Z" fill="#4E4C86"/>
</g>
<defs>
<clipPath id="clip0_319_185">
<rect width="35" height="35" fill="white" transform="translate(0 0.5)"/>
</clipPath>
</defs>
</svg>
